<svg version="1" xmlns="http://www.w3.org/2000/svg" width="601.333" height="601.333" viewBox="0 0 451 451"><path d="M152 30.5c-.7.9-1.1 1.7-.9 2 .3.2 1-.5 1.7-1.5 1.4-2.4 1-2.6-.8-.5zm1.5 7.5c.3.5.8 1 1.1 1 .2 0 .4-.5.4-1 0-.6-.5-1-1.1-1-.5 0-.7.4-.4 1zm114.1 5.8c-.3.5.1.9.9.9s1.2-.4.9-.9c-.3-.4-.7-.8-.9-.8-.2 0-.6.4-.9.8zm-94.9 4.3c.7.7 1.5 1 1.8.7.3-.3-.2-.9-1.2-1.2-1.4-.6-1.5-.5-.6.5zm88.9 1.2c.3 1 .9 1.5 1.2 1.2.3-.3 0-1.1-.7-1.8-1-.9-1.1-.8-.5.6zM173 54c0 .5.5 1 1.1 1 .5 0 .7-.5.4-1-.3-.6-.8-1-1.1-1-.2 0-.4.4-.4 1zm82 14.1c0 .5.5.7 1 .4.6-.3 1-.8 1-1.1 0-.2-.4-.4-1-.4-.5 0-1 .5-1 1.1zm-3.5.8c-.3.5-.2 1.2.3 1.5.5.3.9-.1.9-.9 0-1.7-.3-1.9-1.2-.6zm1.5 5.2c0 .5.5.7 1 .4.6-.3 1-.8 1-1.1 0-.2-.4-.4-1-.4-.5 0-1 .5-1 1.1zm-101.7 2.4c0 .8.4 1.2.9.9.5-.3.6-1 .3-1.5-.9-1.3-1.2-1.1-1.2.6zm-8.6 3.6c.7.7 1.5 1 1.8.7.3-.3-.2-.9-1.2-1.2-1.4-.6-1.5-.5-.6.5zm15.3 1c0 .5-.7.9-1.5.9s-1.5.6-1.5 1.4c0 .8-.4 1.6-1 1.8-.6.2-.6 1.6.1 3.8 1.1 3.6 4.4 6 8.2 6 1 0 1.6.4 1.3.9-.3.5.2.8 1.1.7 2.1-.1 3.5 4.8 2.2 8.2-.8 2.4-.6 2.3 2.4-1 4.2-4.6 5.6-9.2 4.5-13.7-1-3.7-2.2-5.2-5.8-7.1-3.2-1.7-10-3-10-1.9zm133.4.7c.4.3 1.4.7 2.2.8.9.1 1.3 0 1-.4-.4-.3-1.4-.7-2.2-.8-.9-.1-1.3 0-1 .4zM141 86c0 .5.5 1 1.1 1 .5 0 .7-.5.4-1-.3-.6-.8-1-1.1-1-.2 0-.4.4-.4 1zm4.6-.2c-.3.5.1.9.9.9s1.2-.4.9-.9c-.3-.4-.7-.8-.9-.8-.2 0-.6.4-.9.8zm119.9.2c.3.5.8 1 1.1 1 .2 0 .4-.5.4-1 0-.6-.5-1-1.1-1-.5 0-.7.4-.4 1zm20 0c.3.5.8 1 1.1 1 .2 0 .4-.5.4-1 0-.6-.5-1-1.1-1-.5 0-.7.4-.4 1zm5.8 2.5c0 .8.4 1.2.9.9.5-.3.6-1 .3-1.5-.9-1.3-1.2-1.1-1.2.6zm-201.8.2c-8.7 1.6-12.5 7.9-9.5 15.8 1.1 3 7.4 9.5 9.2 9.5 2.1 0 5.8 5.1 5.8 8 0 3.5-2 8.1-3.1 7.4-.5-.3-.6.2-.3 1 .4.9-.1 1.8-1 2.2-.9.3-1.3 1-1 1.5.5.8-1 1.3-2.9 1-.5-.1-.6.3-.2.9.3.6 1 .8 1.5.5.4-.3 1.1.1 1.3.7.3.8.6.6.6-.5.1-1.9 1.6-2.3 2.4-.7.3.6.4.5.3-.2-.3-1.4 7-6.8 9.2-6.8.6 0 1.2-.6 1.2-1.3 0-.6 1.4-2.5 3-4.1 1.7-1.6 3-3.3 3-3.8s.4-.7.9-.4c.5.4.7-.3.4-1.4-.4-1.3.1-2.7 1.3-3.6 1.1-.9 1.3-1.3.7-.9-.9.4-1.3-.5-1.3-3.3 0-5.5-2.4-10.6-7.1-15.1-4.1-4-10.8-7-14.4-6.4zm186 1.2c-.3.5-.2 1.2.3 1.5.5.3.9-.1.9-.9 0-1.7-.3-1.9-1.2-.6zm42.5 17.5c0 .2.8 1 1.8 1.7 1.5 1.3 1.6 1.2.3-.4s-2.1-2.1-2.1-1.3zm-20.5 1.5c-.3.5 0 1.3.6 1.7.7.4.9.3.5-.4-.3-.6.2-1.3 1.1-1.5 1.6-.4 1.6-.5.1-.6-.9 0-1.9.3-2.3.8zm-3.9 2.8c-.6 1.4-.5 1.5.5.6.7-.7 1-1.5.7-1.8-.3-.3-.9.2-1.2 1.2zm9.7-.4c0 .8.6 1.4 1.4 1.4.9 0 1-.4.2-1.4-.6-.7-1.2-1.3-1.4-1.3-.1 0-.2.6-.2 1.3zm-6.2 1.4c.7 1.2 1.5 2 1.8 1.7.3-.2-.3-1.2-1.3-2.2-1.7-1.6-1.8-1.6-.5.5zm-181.5 1.8c-.3.9-1.1 1.3-1.7.9-.8-.5-.9-.3-.4.5.6 1 1.1.9 2.3-.3.9-.8 1.3-1.8 1-2.1-.3-.3-.8.1-1.2 1zm100.1-.9c-.3.3-3 .7-6.2 1-3.1.2-6.7 1.2-8.1 2-1.9 1.3-2.7 1.4-3.9.4-1.2-1-2.2-.8-5.2.7-2.7 1.4-5.4 1.9-9.6 1.7-4.9-.2-6.2.1-8.4 2.2-1.4 1.3-3.4 2.4-4.3 2.4-1 0-2.3.7-3 1.5-.8.9-2.2 1.2-4.1.8-1.5-.3-4-.2-5.4.1-2.2.6-2.4.9-1.4 2.7.6 1.2.7 1.9.2 1.6-.4-.2-1.9 0-3.3.6-1.4.5-3.6.9-4.9.8-2.1-.3-2.3 0-1.7 2.4.6 2.2.2 2.8-2.7 4-1.8.8-3.9 2.1-4.7 2.9-.7.9-2 1.6-3 1.6s-2.5 1.1-3.4 2.5c-.9 1.4-2.1 2.3-2.6 2-1.2-.7-6.1 1.6-5.5 2.6.3.4.1 1-.5 1.4-.6.4-.8 1-.5 1.5.3.5-1.1.8-3.2.7-3.3-.2-3.8.1-3.5 1.9.1 1.2-.4 2.7-1.3 3.4-.8.7-1.3 1.6-1 2 .9 1.5-1.7 2.3-2.7.9-.8-1.1-.8-1-.4.4.4 1.3-.8 3.2-4.1 6.6-5.1 5-7.9 6.6-8.8 5.1-.4-.6-.1-1 .5-1s.8-.5.5-1.1c-1-1.5-1.6-.6-2 2.7-.1 1.6-.8 3-1.3 3.2-.8.2-.8 1 .1 2.4.9 1.6.9 2.2 0 2.5-.7.3-1.3.8-1.3 1.3s-.4 1.9-.9 3.2c-.5 1.3-1 2.7-1.1 3.3-.1.5-1.5 2.8-2.9 5-3.3 4.9-8.3 14.5-7.6 14.5.3 0 .1.8-.4 1.9-.6 1-1.3 3.3-1.6 5.2-.3 1.9-.8 4.7-1.1 6.4-1.9 10.2 0 20.3 4.1 21.9 1.6.6 2 4.3.7 6.2-1 1.4-4 2.6-8 2.9-3.9.4-16.2 6.1-17.9 8.4-1.9 2.5-1.5 5.5.8 7.1 2.9 2 5.8 5 7.7 8 1 1.4 2.7 3.3 4 4.4 4.7 3.7 6 10.7 2.9 15.3-1.6 2.4-2.9 3.2-4.6 3l-2.5-.2v23.9l-5.2 5.2c-5.2 5.2-8.4 10-8.4 12.7 0 .8.8 2.1 1.9 3.1 1.1 1 1.6 2.5 1.4 4-.3 1.4.8 4.6 2.6 8.1 3.7 6.9 3.7 6.9 1 11.9-1.2 2.2-2.1 6-2.2 9-.2 5.1-.2 5.1-3.4 5-3.7-.2-4.7 1.5-2.6 4.5 1.5 2.2 4.1 2.4 8.5.6 1.3-.5 2-.1 2.4 1.1 1.1 3.5 2 4.7 3.9 5 1.1.2 2.1.7 2.3 1.3.2.5 2.4 4 4.9 7.8 3.8 5.8 5.5 7.5 10.7 10.1 5.9 3 19.1 8.1 21.1 8.2.3 0 1.8.6 3.3 1.4 3.3 1.7 10.9 2.6 13.6 1.7 1.1-.4 3.6-.2 5.6.5 1.9.7 5.1 1.5 7 1.7 1.9.3 3.5.6 3.5.7 0 .1 1.1.3 2.5.6 1.4.2 4.8.8 7.5 1.4 6.4 1.2 10.2 1.9 14.5 2.6 1.9.3 6 .9 9 1.4 3 .4 6.2.8 7 .8.8 0 6.7.3 13 .7 15.7 1 40.1 1 60 .1 9.1-.5 24.8-1 35-1.2 18.3-.4 20.2-.5 31-1.9 7.3-.9 9.5-1.3 9.5-1.5 0-.1 1.1-.3 2.5-.5 2.9-.3 8.8-1.4 11-2 .8-.2 3.2-.6 5.3-.9 2.1-.4 5.3-1.4 7-2.3 1.8-.9 3.4-1.7 3.7-1.8.3 0 1.1-.4 1.8-.8.6-.5 1.2-.5 1.2-.2 0 .4.7-.1 1.6-.9.8-.9 2.1-1.6 2.8-1.6 3.7 0 12.6-6.5 12.6-9.2 0-1.3 4.8-7.4 9.8-12.5 3.7-3.8 4.6-4.3 7.5-3.8 5.4 1 5.9 2.3 3 8.5-1.4 3-3.1 7.1-3.8 9.1l-1.3 3.6 4.8-.3c6.5-.4 12.9-2.2 15.9-4.6 2.3-1.8 2.6-2.7 2.7-9.6 0-4.2-.3-8.7-.7-9.9-.5-1.4-.4-2.7.4-3.5 2.7-3 1.7-4.7-6.2-11.1-2-1.6-2-1.9-.7-4.6.9-1.6 1.3-3.1 1-3.4-.3-.3-.7-1.1-.8-1.9-.9-4.2-2-7.5-3.1-8.8-.7-.8-1.2-3.3-1.2-5.6 0-2.2-.3-4.6-.7-5.2-.4-.7-.5-1.2-.1-1.2.3 0-.2-1.4-1.1-3.2-1.5-2.9-1.5-3.2.1-4.4 2.4-1.8 3-7.6 1.1-11.2-1.8-3.5-7.1-8.2-9.2-8.2-2.6 0-8.4-5.3-8.4-7.7 0-1.5 1.4-3 4.8-4.9 2.6-1.6 4.9-2.9 5.2-3 4.3-.9 6.5-5.8 5-11.3-.5-2-2.5-6-4.5-8.9-3.8-5.9-4.1-6.7-2.2-5.9 1.9.7.7-14.2-1.5-17.2-1.2-1.7-1.4-2.9-.8-4.1.5-1 .6-2 .3-2.4-.3-.3-.2-.6.3-.6.6 0 .8-1.6.6-3.6-.4-2.9-.2-3.5.9-2.8 1.2.6 1.2.5.1-.8-1.3-1.6-1.2-4.4.2-6.7.6-1 .5-1.2-.2-.7-.7.4-1.2 0-1.3-1.1 0-1-.2-2.5-.4-3.3-.2-.8-.6-2.6-.9-4-.3-1.4-.8-3.6-1.1-5-.3-1.4-.8-3.4-1-4.6-.3-1.2-1.1-4-1.9-6.3-.9-2.2-1.3-4.1-.9-4.1.3 0-.1-.8-.8-1.7-1-1.2-1-1.5-.1-.9.7.4-.1-1.4-1.8-4-1.6-2.6-3-5.3-3-5.9 0-.7-1.3-3-2.9-5.2-1.6-2.3-2.7-4.4-2.4-4.7.4-.3.1-.6-.5-.6-.7 0-1.2-.6-1.2-1.4 0-.7-5.2-6.7-11.6-13.2-6.4-6.5-12-12.9-12.5-14.2-.5-1.4-2-2.5-3.9-2.8-3.4-.7-3.4-.8-1.9-3.6.6-1.1.7-1.8.2-1.5-.6.4-2.5-.7-4.4-2.3-1.9-1.6-4.1-2.9-4.9-3-.8 0-2.1-.9-2.8-2.1-.9-1.3-2-1.9-3.2-1.6-1.1.3-2.4-.1-3.1-.9-.6-.8-1.6-1.4-2.1-1.4-.6 0-2.2-.8-3.6-1.9-1.5-1-3.8-2.1-5.2-2.4-1.4-.3-3.5-1.6-4.8-2.7-1.2-1.1-2.2-1.9-2.2-1.6 0 1.3-8.7-1.9-12.3-4.5-2.4-1.7-4.9-2.8-6-2.5-1.4.3-1.7 0-1.2-1.2.3-.9.3-1.3-.1-.9s-1.3.2-2.1-.5c-.7-.6-2.8-1.2-4.6-1.3-1.7-.2-3.3-.4-3.4-.5-.2-.1-.6-.3-1-.4-.5-.1-1.9-.6-3.3-1-1.3-.5-5.8-.9-10-1-4.1-.1-8.1-.5-8.8-1-.7-.4-3.8-.9-7-1-3.1-.2-6.5-.6-7.5-1.1-.9-.4-3.2-.4-5 0-4.5 1-14.8 1.3-17.3.4-1.2-.4-2.4-.5-2.7-.3zm99.6.1c.4.3.1 1.3-.6 2.2-1.1 1.4-1 1.4.5.2 1.6-1.2 1.6-3.1.1-3.1-.4 0-.3.3 0 .7zm66.2.2c-.3.5-.2 1.2.3 1.5.5.3.9-.1.9-.9 0-1.7-.3-1.9-1.2-.6zm-263.5.8c0 .6.8 1.7 1.8 2.4 1.6 1.3 1.6 1.3.2-.6-.8-1.1-1.6-2.2-1.7-2.4-.2-.2-.3 0-.3.6zm189.8.5c1.3 1.6 5.6 2.2 4.6.6-.3-.5-1-.6-1.5-.2-.5.3-1.8 0-2.7-.8-1.5-1.2-1.6-1.1-.4.4zm-18.8.8c0 .5.5 1 1.1 1 .5 0 .7-.5.4-1-.3-.6-.8-1-1.1-1-.2 0-.4.4-.4 1zm5-.6c0 .2.9.6 2 .9 1.1.3 1.8.1 1.4-.4-.5-.9-3.4-1.3-3.4-.5zm5.6 1.9c.3 1 .9 1.5 1.2 1.2.3-.3 0-1.1-.7-1.8-1-.9-1.1-.8-.5.6zm-184.1.6c-.3.5-.2 1.2.3 1.5.5.3.9-.1.9-.9 0-1.7-.3-1.9-1.2-.6zm180.1.6c.5 1.1.2 1.4-1 .9-1-.4-1.6-.1-1.6.7 0 .7.3.9.7.6.3-.4 1.1-.3 1.7.3.8.6 1.2.3 1.3-1 .1-1.1-.2-2.2-.8-2.5-.5-.3-.6.1-.3 1zm7.7 0c0 .8.4 1.2.9.9.5-.3.6-1 .3-1.5-.9-1.3-1.2-1.1-1.2.6zm15.3-.7c-.3.5.1.9.9.9s1.2-.4.9-.9c-.3-.4-.7-.8-.9-.8-.2 0-.6.4-.9.8zm-200.8 2c-.4 1.2-.1 2.5.5 2.9.7.3.9.3.5-.2-.4-.4 0-1.4 1-2.2.9-.8 1.2-1.2.5-.9-.6.4-1.3.1-1.5-.6-.3-.7-.7-.2-1 1z"/><path d="M83.6 120.7c-.6 1.4-.5 1.5.5.6.7-.7 1-1.5.7-1.8-.3-.3-.9.2-1.2 1.2zm206-.5c.3.5 1 .6 1.5.3 1.3-.9 1.1-1.2-.6-1.2-.8 0-1.2.4-.9.9zm19.9-.2c.3.5.8 1 1.1 1 .2 0 .4-.5.4-1 0-.6-.5-1-1.1-1-.5 0-.7.4-.4 1zm-10.4 1.3c-.8 1-.7 1.4.4 1.4.8 0 1.1-.5.8-1-.4-.6.1-.8 1.1-.4s1.5.3 1.1-.3c-.8-1.4-2-1.2-3.4.3zm6.4-.4c-.3.5 0 1.3.6 1.7.8.5.9.3.4-.6-.6-1-.4-1.2.9-.7 1 .4 1.5.3 1.1-.3-.8-1.3-2.2-1.3-3-.1zm-190.5.6c0 .5.5 1.7 1 2.5s1 1 1 .5c0-.6-.5-1.7-1-2.5s-1-1.1-1-.5zm204.4.9c.1.8.5 1.8.8 2.2.4.3.5-.1.4-1-.1-.8-.5-1.8-.8-2.2-.4-.3-.5.1-.4 1zm-4.1 1.1c0 .8.4 1.2.9.9.5-.3.6-1 .3-1.5-.9-1.3-1.2-1.1-1.2.6zm-225.7 1.2c-.6 1.4-.5 1.5.5.6.7-.7 1-1.5.7-1.8-.3-.3-.9.2-1.2 1.2zm32.4-.7c-.9.6-1 1-.3 1 .6 0 1.5-.5 1.8-1 .8-1.2.4-1.2-1.5 0zm-14.8 1.6c-.7.8-.8 1.4-.3 1.4 1 0 2.5-1.9 2-2.5-.2-.1-1 .3-1.7 1.1zm199.6-.9c.6.2 1 .9.7 1.4-.4.5.1.6 1 .2 1.3-.5 1.4-.7.3-1.4-.7-.5-1.7-.8-2.3-.8-.5 0-.4.3.3.6zm-235.2 1.1c-.3.5.1.9.9.9s1.2-.4.9-.9c-.3-.4-.7-.8-.9-.8-.2 0-.6.4-.9.8zm231.9.2c.3.5.8 1 1.1 1 .2 0 .4-.5.4-1 0-.6-.5-1-1.1-1-.5 0-.7.4-.4 1zm8.1.2c.3.5 1 .6 1.5.3 1.3-.9 1.1-1.2-.6-1.2-.8 0-1.2.4-.9.9zm5.4-.8c0 .2.7.7 1.6 1 .8.3 1.2.2.9-.4-.6-1-2.5-1.4-2.5-.6zm8 .6c0 .5.5 1 1.1 1 .5 0 .7-.5.4-1-.3-.6-.8-1-1.1-1-.2 0-.4.4-.4 1zm-209.5.9c-.3.6-1.4.8-2.5.6-1.2-.2-1.8 0-1.5.6.4.5.1.9-.6.9s-.9.3-.6.6c.4.4 1.3.2 2-.4.8-.7 1.6-1 1.9-.7.3.3 1.1-.1 1.8-1 .7-.8 1-1.5.7-1.5-.3 0-.8.4-1.2.9zm3.3-.2c.6.2 1.8.2 2.5 0 .6-.3.1-.5-1.3-.5-1.4 0-1.9.2-1.2.5zm15.9 1.4c.7.7 1.5 1 1.8.7.3-.3-.2-.9-1.2-1.2-1.4-.6-1.5-.5-.6.5zm173.8-.1c-.4.6.1.7 1.1.3 1.4-.5 1.6-.3 1 1.3-.5 1.4-.4 1.6.5.7 1.2-1.2.5-3.3-1.1-3.3-.5 0-1.2.4-1.5 1zm-239.2 1.7c.4.3-.1 1.6-1 2.7-1.8 2.1-1.8 2.1.4.2 2-1.6 2.3-3.6.6-3.6-.4 0-.3.3 0 .7zm18.5 0c.7.3 1.6.2 1.9-.1.4-.3-.2-.6-1.3-.5-1.1 0-1.4.3-.6.6zm17.9 0c-.3.5 0 1.7.4 2.8.9 1.9.9 1.9.5-.2-.2-1.4.2-2.3 1.3-2.6 1.4-.4 1.4-.5-.1-.6-.9 0-1.9.2-2.1.6zm19.8.3c-.3.5-.1 1 .4 1 .6 0 1.1-.5 1.1-1 0-.6-.2-1-.4-1-.3 0-.8.4-1.1 1zm-50.8 2.1c.7.7 1.5 1 1.8.7.3-.3-.2-.9-1.2-1.2-1.4-.6-1.5-.5-.6.5zm24.4.6c.7 1.2 1.5 2 1.8 1.7.3-.2-.3-1.2-1.3-2.2-1.7-1.6-1.8-1.6-.5.5zm2.7-.5c.5.5 1.6.8 2.3.6.8-.3.3-.7-1-1.1-1.7-.4-2.1-.3-1.3.5zm7.3.4c0 1.1.3 1.4.6.6.3-.7.2-1.6-.1-1.9-.3-.4-.6.2-.5 1.3zm204.5-.8c-.3.5.1.9.9.9s1.2-.4.9-.9c-.3-.4-.7-.8-.9-.8-.2 0-.6.4-.9.8zm6.4.2c-1.2.7-1 .9.8.7 1.2 0 2.2-.5 2.2-.9 0-1.1-1.2-1-3 .2zm-238.8 2.2c.2.7-.5 1.2-1.6 1.1-1.3-.1-1.5.2-.7 1s1.5.7 2.7-.5c1.1-1.1 1.3-1.8.5-2.3-.7-.4-1-.1-.9.7zm16.4.1c.3 1 .9 1.5 1.2 1.2.3-.3 0-1.1-.7-1.8-1-.9-1.1-.8-.5.6zm225.8.2c-.4.8-1 1.2-1.5.9-.5-.3-.6.2-.3 1.1.7 1.8.7 1.8 2.3-1.3.6-1.2.9-2.2.6-2.2-.3 0-.8.7-1.1 1.5zm-222.9 1.9c-1.5 1.1-1.5 1.2.4 1.2 1.1 0 1.7-.5 1.4-1-.4-.5.1-.7 1-.3.9.3 1.8.3 2.1-.1.8-1.3-3.1-1.1-4.9.2zm224.8.1c0 .7.6 1.1 1.4.8.7-.3 1.3-.6 1.3-.8 0-.2-.6-.5-1.3-.8-.8-.3-1.4.1-1.4.8zm74.2.2c-1.1.3-3.4 1.8-5.1 3.4-1.7 1.6-3.2 2.7-3.5 2.5-.3-.3-.5.3-.6 1.2 0 .9-.4 3.7-.8 6.1-.7 4.2 1.4 18 2.3 15.3.2-.7.9-.9 1.5-.6.9.5.9.4 0-.6-.8-.9-.9-2-.2-3.9 2.1-5.5 3.4-6 13.1-5.8 8.3.2 9.1 0 10.9-2.2 2.3-2.8 2.5-7.9.3-11-2.9-4.1-10.8-6.1-17.9-4.4zM85 139c-.9.6-1 1-.3 1 .6 0 1.5-.5 1.8-1 .8-1.2.4-1.2-1.5 0zm242.7.1c.7.7 1.5 1 1.8.7.3-.3-.2-.9-1.2-1.2-1.4-.6-1.5-.5-.6.5zm-229.1 1c.4.8 3 .6 3.8-.2.3-.3-.5-.5-1.9-.5-1.3 0-2.2.3-1.9.7zm18 .1c.3.5 1 .6 1.5.3 1.3-.9 1.1-1.2-.6-1.2-.8 0-1.2.4-.9.9zm-36.7 1c-.6 1.8-.3 4.6.3 4.2.5-.4.7-1.2.4-1.9-.3-.8 0-1.6.7-1.9.9-.3.9-.5 0-.5-.7-.1-1.3 0-1.4.1zm9.4 2.3c0 .8.4 1.2.9.9.5-.3.6-1 .3-1.5-.9-1.3-1.2-1.1-1.2.6zm26.6-.3c1.5 2.1 3.1 2.3 3.1.6 0-.6-.3-.8-.7-.5-.3.4-1.3.1-2.2-.6-1.4-1.1-1.4-1-.2.5zM93.5 146c.3.5.8 1 1.1 1 .2 0 .4-.5.4-1 0-.6-.5-1-1.1-1-.5 0-.7.4-.4 1zm14.1.2c.3.5 1 .6 1.5.3 1.3-.9 1.1-1.2-.6-1.2-.8 0-1.2.4-.9.9zm-26 1.2c.7 1.8 3.4 2.2 3.4.4 0-.6-.3-.8-.7-.5-.3.4-1.2.2-2-.5-1.1-.8-1.2-.7-.7.6zm5.2-.7c.7.3 1.6.2 1.9-.1.4-.3-.2-.6-1.3-.5-1.1 0-1.4.3-.6.6zm-7.8 3c.1 1.3 3 4.8 3 3.6 0-.7-.5-1.5-1-1.8-.6-.4-.8-1.1-.5-1.6.4-.5.1-.9-.4-.9-.6 0-1.1.3-1.1.7zm-3.3 1.9c.6 1.5 2.3 1.9 2.3.5 0-.5-.7-1.1-1.4-1.4-1-.4-1.3-.1-.9.9zm9.8-.5c-.4.6-.5 1.2-.2 1.5.2.3.7-.2 1-1.1.7-1.7.1-2-.8-.4zm23.9 0c-.3.6-.2 1.5.3 2s.9.1.9-1.1c0-2.3-.2-2.4-1.2-.9zm-3.9.9c.3.5.8 1 1.1 1 .2 0 .4-.5.4-1 0-.6-.5-1-1.1-1-.5 0-.7.4-.4 1zm-29.8 4.1c.7.7 1.5 1 1.8.7.3-.3-.2-.9-1.2-1.2-1.4-.6-1.5-.5-.6.5zm8.9-.3c-.3.5.1.9.9.9s1.2-.4.9-.9c-.3-.4-.7-.8-.9-.8-.2 0-.6.4-.9.8zM79 158c0 .5.5 1 1 1 .6 0 1-.5 1-1 0-.6-.4-1-1-1-.5 0-1 .4-1 1zm-3.3 2.1c.6 2.3.9 2.4 1.6.5.3-.8 0-1.7-.7-1.9-1-.4-1.2.1-.9 1.4zm9.9-.8c.3 1 .9 1.5 1.2 1.2.3-.3 0-1.1-.7-1.8-1-.9-1.1-.8-.5.6zm-4.6.7c-.8.5-1 1-.5 1 .6 0 1.7-.5 2.5-1s1.1-1 .5-1c-.5 0-1.7.5-2.5 1zm-7.5 2c.3.5.8 1 1.1 1 .2 0 .4-.5.4-1 0-.6-.5-1-1.1-1-.5 0-.7.4-.4 1zm9.5 0c0 .5.5 1 1 1 .6 0 1-.5 1-1 0-.6-.4-1-1-1-.5 0-1 .4-1 1zm16-.1c0 .6.4 1.3 1 1.6.6.3.7-.1.4-.9-.7-1.8-1.4-2.1-1.4-.7z"/><path d="M401 162c0 .5.5 1 1.1 1 .5 0 .7-.5.4-1-.3-.6-.8-1-1.1-1-.2 0-.4.4-.4 1zm-314.3 2.5c.3.8.9 1.2 1.4.9 1.2-.7 1.1-1.1-.5-1.7-1-.4-1.3-.1-.9.8zm-12.7-.1c0 .2.7.7 1.6 1 .8.3 1.2.2.9-.4-.6-1-2.5-1.4-2.5-.6zm17.1.5c-1.9 1.2-2.2 3.8-.5 3.8 1.1 0 1.1-.3.1-1.6-1-1.2-.9-1.4.6-.8 1 .4 1.6.3 1.2-.2-.3-.5.1-1.2.7-1.4.7-.3.9-.6.3-.6-.5 0-1.6.3-2.4.8zm15.8.8c-1.3 1.6-1.2 1.7.4.4.9-.7 1.7-1.5 1.7-1.7 0-.8-.8-.3-2.1 1.3zm-6.4.4c-.4.6-1.3.8-2.1.5-.8-.3-1.1 0-.7 1 .7 1.9 1.6 1.8 3.1-.6.7-1.1 1-2 .8-2-.3 0-.8.5-1.1 1.1zm2.9.3c.1.8.5 1.8.8 2.2.4.3.5-.1.4-1-.1-.8-.5-1.8-.8-2.2-.4-.3-.5.1-.4 1zm-9.4.2c0 .5.7 1.8 1.5 2.8.8 1.1 1.5 1.6 1.5 1 0-.5-.7-1.8-1.5-2.8-.8-1.1-1.5-1.6-1.5-1zm-18.5 1.3c-.3.5-.2 1.2.3 1.5.5.3.9-.1.9-.9 0-1.7-.3-1.9-1.2-.6zm3.1 2.3c.3.4 1.1.5 1.9.1 2.1-.7 1.9-1.2-.4-1-1.1 0-1.8.5-1.5.9zm7.4-.8c0 .2.7.7 1.6 1 .8.3 1.2.2.9-.4-.6-1-2.5-1.4-2.5-.6zm7.5.5c.6 1 .2 1.2-1.6.6-1.3-.4-2.2-.6-1.9-.4.3.2 1.4 1.2 2.6 2.2 2 1.6 2.1 1.6 1.9-.3-.1-1.1-.5-2.3-1-2.7-.4-.5-.5-.2 0 .6zm304.5.1c.8.5 2 1 2.5 1 .6 0 .3-.5-.5-1s-1.9-1-2.5-1c-.5 0-.3.5.5 1zm7.5 0c-.3.5-.1 1 .4 1 .6 0 1.1-.5 1.1-1 0-.6-.2-1-.4-1-.3 0-.8.4-1.1 1zm-320 2c.3.5.8 1 1.1 1 .2 0 .4-.5.4-1 0-.6-.5-1-1.1-1-.5 0-.7.4-.4 1zm15.5.1c0 .5.5.7 1 .4.6-.3 1-.8 1-1.1 0-.2-.4-.4-1-.4-.5 0-1 .5-1 1.1zm-11.7 2.4c0 .8.4 1.2.9.9.5-.3.6-1 .3-1.5-.9-1.3-1.2-1.1-1.2.6zm311.3 3.3c-.3.5.1.9.9.9s1.2-.4.9-.9c-.3-.4-.7-.8-.9-.8-.2 0-.6.4-.9.8zm-387.5 5.8c-10.4 5.2-16.1 20-11.3 29.3 2.4 4.9 6.4 7.5 11.2 7.5 7.4-.1 13.2-7 14.5-17 .5-4.3 1.2-5.9 3.6-7.9 1.7-1.4 4-2.6 5.2-2.6 4.5-.3 6.4-.2 10.3.5l3.9.7-6.4-4.5c-12.4-8.8-21.7-10.6-31-6zm378.4 4.4c.3.5.8 1 1.1 1 .2 0 .4-.5.4-1 0-.6-.5-1-1.1-1-.5 0-.7.4-.4 1zm35.8 3.1c-.2 2.3.3 2.5 1 .4.4-.8.3-1.6-.1-1.9-.4-.3-.9.4-.9 1.5zm-7.8 1.8c-.3.5-.2 1.2.3 1.5.5.3.9-.1.9-.9 0-1.7-.3-1.9-1.2-.6zm-12 1c-.3.5-.2 1.2.3 1.5.5.3.9-.1.9-.9 0-1.7-.3-1.9-1.2-.6zm6 .1c-.3.5-.1 1 .4 1 .6 0 1.1-.5 1.1-1 0-.6-.2-1-.4-1-.3 0-.8.4-1.1 1zm-8 3.9c-.3.5-.2 1.2.3 1.5.5.3.9-.1.9-.9 0-1.7-.3-1.9-1.2-.6zm-8.9 4.3c.3.5 1 .6 1.5.3 1.3-.9 1.1-1.2-.6-1.2-.8 0-1.2.4-.9.9zm.4 3.8c0 .5.5 1 1.1 1 .5 0 .7-.5.4-1-.3-.6-.8-1-1.1-1-.2 0-.4.4-.4 1zm2.5 34.9c-.3.5-.2 1.2.3 1.5.5.3.9-.1.9-.9 0-1.7-.3-1.9-1.2-.6zm31.6 47.9c-3.7.6-9.5 4.6-13 9-3.8 4.9-3.9 5.4-.3 3.6 6.6-3.2 10.8-2.2 13.7 3.3 5.5 10.2 17.3 11.3 19.1 1.8 1.8-9.6-9.1-19.5-19.5-17.7zM29.2 302c-3.8 2.3-5.5 5.9-5.4 11.3 0 4.5 3.3 8.7 6.9 8.7 2.7 0 6.3-3.2 6.4-5.8.2-2.6.6-7.6.8-8.4.3-1.8 3.6-3.8 6.4-3.9l3.2-.1-3.5-1.5c-5.6-2.5-11-2.6-14.8-.3z"/></svg>