<?xml version="1.0" standalone="no"?>
<!DOCTYPE svg PUBLIC "-//W3C//DTD SVG 20010904//EN"
 "http://www.w3.org/TR/2001/REC-SVG-20010904/DTD/svg10.dtd">
<svg version="1.0" xmlns="http://www.w3.org/2000/svg"
 width="451.000000pt" height="451.000000pt" viewBox="0 0 451.000000 451.000000"
 preserveAspectRatio="xMidYMid meet">
<metadata>
Created by potrace 1.11, written by Peter Selinger 2001-2013
</metadata>
<g transform="translate(0.000000,451.000000) scale(0.100000,-0.100000)"
fill="#000000" stroke="none">
<path d="M1520 4205 c-7 -9 -11 -17 -9 -20 3 -2 10 5 17 15 14 24 10 26 -8 5z"/>
<path d="M1535 4130 c3 -5 8 -10 11 -10 2 0 4 5 4 10 0 6 -5 10 -11 10 -5 0
-7 -4 -4 -10z"/>
<path d="M2676 4072 c-3 -5 1 -9 9 -9 8 0 12 4 9 9 -3 4 -7 8 -9 8 -2 0 -6 -4
-9 -8z"/>
<path d="M1727 4029 c7 -7 15 -10 18 -7 3 3 -2 9 -12 12 -14 6 -15 5 -6 -5z"/>
<path d="M2616 4017 c3 -10 9 -15 12 -12 3 3 0 11 -7 18 -10 9 -11 8 -5 -6z"/>
<path d="M1730 3970 c0 -5 5 -10 11 -10 5 0 7 5 4 10 -3 6 -8 10 -11 10 -2 0
-4 -4 -4 -10z"/>
<path d="M2550 3829 c0 -5 5 -7 10 -4 6 3 10 8 10 11 0 2 -4 4 -10 4 -5 0 -10
-5 -10 -11z"/>
<path d="M2515 3821 c-3 -5 -2 -12 3 -15 5 -3 9 1 9 9 0 17 -3 19 -12 6z"/>
<path d="M2530 3769 c0 -5 5 -7 10 -4 6 3 10 8 10 11 0 2 -4 4 -10 4 -5 0 -10
-5 -10 -11z"/>
<path d="M1513 3745 c0 -8 4 -12 9 -9 5 3 6 10 3 15 -9 13 -12 11 -12 -6z"/>
<path d="M1427 3709 c7 -7 15 -10 18 -7 3 3 -2 9 -12 12 -14 6 -15 5 -6 -5z"/>
<path d="M1580 3699 c0 -5 -7 -9 -15 -9 -8 0 -15 -6 -15 -14 0 -8 -4 -16 -10
-18 -6 -2 -6 -16 1 -38 11 -36 44 -60 82 -60 10 0 16 -4 13 -9 -3 -5 2 -8 11
-7 21 1 35 -48 22 -82 -8 -24 -6 -23 24 10 42 46 56 92 45 137 -10 37 -22 52
-58 71 -32 17 -100 30 -100 19z"/>
<path d="M2914 3692 c4 -3 14 -7 22 -8 9 -1 13 0 10 4 -4 3 -14 7 -22 8 -9 1
-13 0 -10 -4z"/>
<path d="M1410 3650 c0 -5 5 -10 11 -10 5 0 7 5 4 10 -3 6 -8 10 -11 10 -2 0
-4 -4 -4 -10z"/>
<path d="M1456 3652 c-3 -5 1 -9 9 -9 8 0 12 4 9 9 -3 4 -7 8 -9 8 -2 0 -6 -4
-9 -8z"/>
<path d="M2655 3650 c3 -5 8 -10 11 -10 2 0 4 5 4 10 0 6 -5 10 -11 10 -5 0
-7 -4 -4 -10z"/>
<path d="M2855 3650 c3 -5 8 -10 11 -10 2 0 4 5 4 10 0 6 -5 10 -11 10 -5 0
-7 -4 -4 -10z"/>
<path d="M2913 3625 c0 -8 4 -12 9 -9 5 3 6 10 3 15 -9 13 -12 11 -12 -6z"/>
<path d="M895 3623 c-87 -16 -125 -79 -95 -158 11 -30 74 -95 92 -95 21 0 58
-51 58 -80 0 -35 -20 -81 -31 -74 -5 3 -6 -2 -3 -10 4 -9 -1 -18 -10 -22 -9
-3 -13 -10 -10 -15 5 -8 -10 -13 -29 -10 -5 1 -6 -3 -2 -9 3 -6 10 -8 15 -5 4
3 11 -1 13 -7 3 -8 6 -6 6 5 1 19 16 23 24 7 3 -6 4 -5 3 2 -3 14 70 68 92 68
6 0 12 6 12 13 0 6 14 25 30 41 17 16 30 33 30 38 0 5 4 7 9 4 5 -4 7 3 4 14
-4 13 1 27 13 36 11 9 13 13 7 9 -9 -4 -13 5 -13 33 0 55 -24 106 -71 151 -41
40 -108 70 -144 64z"/>
<path d="M2755 3611 c-3 -5 -2 -12 3 -15 5 -3 9 1 9 9 0 17 -3 19 -12 6z"/>
<path d="M3180 3436 c0 -2 8 -10 18 -17 15 -13 16 -12 3 4 -13 16 -21 21 -21
13z"/>
<path d="M2975 3421 c-3 -5 0 -13 6 -17 7 -4 9 -3 5 4 -3 6 2 13 11 15 16 4
16 5 1 6 -9 0 -19 -3 -23 -8z"/>
<path d="M2936 3393 c-6 -14 -5 -15 5 -6 7 7 10 15 7 18 -3 3 -9 -2 -12 -12z"/>
<path d="M3033 3397 c0 -8 6 -14 14 -14 9 0 10 4 2 14 -6 7 -12 13 -14 13 -1
0 -2 -6 -2 -13z"/>
<path d="M2971 3383 c7 -12 15 -20 18 -17 3 2 -3 12 -13 22 -17 16 -18 16 -5
-5z"/>
<path d="M1156 3365 c-3 -9 -11 -13 -17 -9 -8 5 -9 3 -4 -5 6 -10 11 -9 23 3
9 8 13 18 10 21 -3 3 -8 -1 -12 -10z"/>
<path d="M2157 3374 c-3 -3 -30 -7 -62 -10 -31 -2 -67 -12 -81 -20 -19 -13
-27 -14 -39 -4 -12 10 -22 8 -52 -7 -27 -14 -54 -19 -96 -17 -49 2 -62 -1 -84
-22 -14 -13 -34 -24 -43 -24 -10 0 -23 -7 -30 -15 -8 -9 -22 -12 -41 -8 -15 3
-40 2 -54 -1 -22 -6 -24 -9 -14 -27 6 -12 7 -19 2 -16 -4 2 -19 0 -33 -6 -14
-5 -36 -9 -49 -8 -21 3 -23 0 -17 -24 6 -22 2 -28 -27 -40 -18 -8 -39 -21 -47
-29 -7 -9 -20 -16 -30 -16 -10 0 -25 -11 -34 -25 -9 -14 -21 -23 -26 -20 -12
7 -61 -16 -55 -26 3 -4 1 -10 -5 -14 -6 -4 -8 -10 -5 -15 3 -5 -11 -8 -32 -7
-33 2 -38 -1 -35 -19 1 -12 -4 -27 -13 -34 -8 -7 -13 -16 -10 -20 9 -15 -17
-23 -27 -9 -8 11 -8 10 -4 -4 4 -13 -8 -32 -41 -66 -51 -50 -79 -66 -88 -51
-4 6 -1 10 5 10 6 0 8 5 5 11 -10 15 -16 6 -20 -27 -1 -16 -8 -30 -13 -32 -8
-2 -8 -10 1 -24 9 -16 9 -22 0 -25 -7 -3 -13 -8 -13 -13 0 -5 -4 -19 -9 -32
-5 -13 -10 -27 -11 -33 -1 -5 -15 -28 -29 -50 -33 -49 -83 -145 -76 -145 3 0
1 -8 -4 -19 -6 -10 -13 -33 -16 -52 -3 -19 -8 -47 -11 -64 -19 -102 0 -203 41
-219 16 -6 20 -43 7 -62 -10 -14 -40 -26 -80 -29 -39 -4 -162 -61 -179 -84
-19 -25 -15 -55 8 -71 29 -20 58 -50 77 -80 10 -14 27 -33 40 -44 47 -37 60
-107 29 -153 -16 -24 -29 -32 -46 -30 l-25 2 0 -119 0 -120 -52 -52 c-52 -52
-84 -100 -84 -127 0 -8 8 -21 19 -31 11 -10 16 -25 14 -40 -3 -14 8 -46 26
-81 37 -69 37 -69 10 -119 -12 -22 -21 -60 -22 -90 -2 -51 -2 -51 -34 -50 -37
2 -47 -15 -26 -45 15 -22 41 -24 85 -6 13 5 20 1 24 -11 11 -35 20 -47 39 -50
11 -2 21 -7 23 -13 2 -5 24 -40 49 -78 38 -58 55 -75 107 -101 59 -30 191 -81
211 -82 3 0 18 -6 33 -14 33 -17 109 -26 136 -17 11 4 36 2 56 -5 19 -7 51
-15 70 -17 19 -3 35 -6 35 -7 0 -1 11 -3 25 -6 14 -2 48 -8 75 -14 64 -12 102
-19 145 -26 19 -3 60 -9 90 -14 30 -4 62 -8 70 -8 8 0 67 -3 130 -7 157 -10
401 -10 600 -1 91 5 248 10 350 12 183 4 202 5 310 19 73 9 95 13 95 15 0 1
11 3 25 5 29 3 88 14 110 20 8 2 32 6 53 9 21 4 53 14 70 23 18 9 34 17 37 18
3 0 11 4 18 8 6 5 12 5 12 2 0 -4 7 1 16 9 8 9 21 16 28 16 37 0 126 65 126
92 0 13 48 74 98 125 37 38 46 43 75 38 54 -10 59 -23 30 -85 -14 -30 -31 -71
-38 -91 l-13 -36 48 3 c65 4 129 22 159 46 23 18 26 27 27 96 0 42 -3 87 -7
99 -5 14 -4 27 4 35 27 30 17 47 -62 111 -20 16 -20 19 -7 46 9 16 13 31 10
34 -3 3 -7 11 -8 19 -9 42 -20 75 -31 88 -7 8 -12 33 -12 56 0 22 -3 46 -7 52
-4 7 -5 12 -1 12 3 0 -2 14 -11 32 -15 29 -15 32 1 44 24 18 30 76 11 112 -18
35 -71 82 -92 82 -26 0 -84 53 -84 77 0 15 14 30 48 49 26 16 49 29 52 30 43
9 65 58 50 113 -5 20 -25 60 -45 89 -38 59 -41 67 -22 59 19 -7 7 142 -15 172
-12 17 -14 29 -8 41 5 10 6 20 3 24 -3 3 -2 6 3 6 6 0 8 16 6 36 -4 29 -2 35
9 28 12 -6 12 -5 1 8 -13 16 -12 44 2 67 6 10 5 12 -2 7 -7 -4 -12 0 -13 11 0
10 -2 25 -4 33 -2 8 -6 26 -9 40 -3 14 -8 36 -11 50 -3 14 -8 34 -10 46 -3 12
-11 40 -19 63 -9 22 -13 41 -9 41 3 0 -1 8 -8 17 -10 12 -10 15 -1 9 7 -4 -1
14 -18 40 -16 26 -30 53 -30 59 0 7 -13 30 -29 52 -16 23 -27 44 -24 47 4 3 1
6 -5 6 -7 0 -12 6 -12 14 0 7 -52 67 -116 132 -64 65 -120 129 -125 142 -5 14
-20 25 -39 28 -34 7 -34 8 -19 36 6 11 7 18 2 15 -6 -4 -25 7 -44 23 -19 16
-41 29 -49 30 -8 0 -21 9 -28 21 -9 13 -20 19 -32 16 -11 -3 -24 1 -31 9 -6 8
-16 14 -21 14 -6 0 -22 8 -36 19 -15 10 -38 21 -52 24 -14 3 -35 16 -48 27
-12 11 -22 19 -22 16 0 -13 -87 19 -123 45 -24 17 -49 28 -60 25 -14 -3 -17 0
-12 12 3 9 3 13 -1 9 -4 -4 -13 -2 -21 5 -7 6 -28 12 -46 13 -17 2 -33 4 -34
5 -2 1 -6 3 -10 4 -5 1 -19 6 -33 10 -13 5 -58 9 -100 10 -41 1 -81 5 -88 10
-7 4 -38 9 -70 10 -31 2 -65 6 -75 11 -9 4 -32 4 -50 0 -45 -10 -148 -13 -173
-4 -12 4 -24 5 -27 3z"/>
<path d="M3153 3373 c4 -3 1 -13 -6 -22 -11 -14 -10 -14 5 -2 16 12 16 31 1
31 -4 0 -3 -3 0 -7z"/>
<path d="M3815 3371 c-3 -5 -2 -12 3 -15 5 -3 9 1 9 9 0 17 -3 19 -12 6z"/>
<path d="M1180 3363 c0 -6 8 -17 18 -24 16 -13 16 -13 2 6 -8 11 -16 22 -17
24 -2 2 -3 0 -3 -6z"/>
<path d="M3078 3358 c13 -16 56 -22 46 -6 -3 5 -10 6 -15 2 -5 -3 -18 0 -27 8
-15 12 -16 11 -4 -4z"/>
<path d="M2890 3350 c0 -5 5 -10 11 -10 5 0 7 5 4 10 -3 6 -8 10 -11 10 -2 0
-4 -4 -4 -10z"/>
<path d="M2940 3356 c0 -2 9 -6 20 -9 11 -3 18 -1 14 4 -5 9 -34 13 -34 5z"/>
<path d="M2996 3337 c3 -10 9 -15 12 -12 3 3 0 11 -7 18 -10 9 -11 8 -5 -6z"/>
<path d="M1155 3331 c-3 -5 -2 -12 3 -15 5 -3 9 1 9 9 0 17 -3 19 -12 6z"/>
<path d="M2956 3325 c5 -11 2 -14 -10 -9 -10 4 -16 1 -16 -7 0 -7 3 -9 7 -6 3
4 11 3 17 -3 8 -6 12 -3 13 10 1 11 -2 22 -8 25 -5 3 -6 -1 -3 -10z"/>
<path d="M3033 3325 c0 -8 4 -12 9 -9 5 3 6 10 3 15 -9 13 -12 11 -12 -6z"/>
<path d="M3186 3332 c-3 -5 1 -9 9 -9 8 0 12 4 9 9 -3 4 -7 8 -9 8 -2 0 -6 -4
-9 -8z"/>
<path d="M1178 3312 c-4 -12 -1 -25 5 -29 7 -3 9 -3 5 2 -4 4 0 14 10 22 9 8
12 12 5 9 -6 -4 -13 -1 -15 6 -3 7 -7 2 -10 -10z"/>
<path d="M836 3303 c-6 -14 -5 -15 5 -6 7 7 10 15 7 18 -3 3 -9 -2 -12 -12z"/>
<path d="M2896 3308 c3 -5 10 -6 15 -3 13 9 11 12 -6 12 -8 0 -12 -4 -9 -9z"/>
<path d="M3095 3310 c3 -5 8 -10 11 -10 2 0 4 5 4 10 0 6 -5 10 -11 10 -5 0
-7 -4 -4 -10z"/>
<path d="M2991 3297 c-8 -10 -7 -14 4 -14 8 0 11 5 8 10 -4 6 1 8 11 4 10 -4
15 -3 11 3 -8 14 -20 12 -34 -3z"/>
<path d="M3055 3301 c-3 -5 0 -13 6 -17 8 -5 9 -3 4 6 -6 10 -4 12 9 7 10 -4
15 -3 11 3 -8 13 -22 13 -30 1z"/>
<path d="M1150 3295 c0 -5 5 -17 10 -25 5 -8 10 -10 10 -5 0 6 -5 17 -10 25
-5 8 -10 11 -10 5z"/>
<path d="M3194 3286 c1 -8 5 -18 8 -22 4 -3 5 1 4 10 -1 8 -5 18 -8 22 -4 3
-5 -1 -4 -10z"/>
<path d="M3153 3275 c0 -8 4 -12 9 -9 5 3 6 10 3 15 -9 13 -12 11 -12 -6z"/>
<path d="M896 3263 c-6 -14 -5 -15 5 -6 7 7 10 15 7 18 -3 3 -9 -2 -12 -12z"/>
<path d="M1220 3270 c-9 -6 -10 -10 -3 -10 6 0 15 5 18 10 8 12 4 12 -15 0z"/>
<path d="M1072 3254 c-7 -8 -8 -14 -3 -14 10 0 25 19 20 25 -2 1 -10 -3 -17
-11z"/>
<path d="M3068 3263 c6 -2 10 -9 7 -14 -4 -5 1 -6 10 -2 13 5 14 7 3 14 -7 5
-17 8 -23 8 -5 0 -4 -3 3 -6z"/>
<path d="M716 3252 c-3 -5 1 -9 9 -9 8 0 12 4 9 9 -3 4 -7 8 -9 8 -2 0 -6 -4
-9 -8z"/>
<path d="M3035 3250 c3 -5 8 -10 11 -10 2 0 4 5 4 10 0 6 -5 10 -11 10 -5 0
-7 -4 -4 -10z"/>
<path d="M3116 3248 c3 -5 10 -6 15 -3 13 9 11 12 -6 12 -8 0 -12 -4 -9 -9z"/>
<path d="M3170 3256 c0 -2 7 -7 16 -10 8 -3 12 -2 9 4 -6 10 -25 14 -25 6z"/>
<path d="M3250 3250 c0 -5 5 -10 11 -10 5 0 7 5 4 10 -3 6 -8 10 -11 10 -2 0
-4 -4 -4 -10z"/>
<path d="M1155 3241 c-3 -6 -14 -8 -25 -6 -12 2 -18 0 -15 -6 4 -5 1 -9 -6 -9
-7 0 -9 -3 -6 -6 4 -4 13 -2 20 4 8 7 16 10 19 7 3 -3 11 1 18 10 7 8 10 15 7
15 -3 0 -8 -4 -12 -9z"/>
<path d="M1188 3243 c6 -2 18 -2 25 0 6 3 1 5 -13 5 -14 0 -19 -2 -12 -5z"/>
<path d="M1347 3229 c7 -7 15 -10 18 -7 3 3 -2 9 -12 12 -14 6 -15 5 -6 -5z"/>
<path d="M3085 3230 c-4 -6 1 -7 11 -3 14 5 16 3 10 -13 -5 -14 -4 -16 5 -7
12 12 5 33 -11 33 -5 0 -12 -4 -15 -10z"/>
<path d="M693 3213 c4 -3 -1 -16 -10 -27 -18 -21 -18 -21 4 -2 20 16 23 36 6
36 -4 0 -3 -3 0 -7z"/>
<path d="M878 3213 c7 -3 16 -2 19 1 4 3 -2 6 -13 5 -11 0 -14 -3 -6 -6z"/>
<path d="M1057 3213 c-3 -5 0 -17 4 -28 9 -19 9 -19 5 2 -2 14 2 23 13 26 14
4 14 5 -1 6 -9 0 -19 -2 -21 -6z"/>
<path d="M1255 3210 c-3 -5 -1 -10 4 -10 6 0 11 5 11 10 0 6 -2 10 -4 10 -3 0
-8 -4 -11 -10z"/>
<path d="M747 3189 c7 -7 15 -10 18 -7 3 3 -2 9 -12 12 -14 6 -15 5 -6 -5z"/>
<path d="M991 3183 c7 -12 15 -20 18 -17 3 2 -3 12 -13 22 -17 16 -18 16 -5
-5z"/>
<path d="M1018 3188 c5 -5 16 -8 23 -6 8 3 3 7 -10 11 -17 4 -21 3 -13 -5z"/>
<path d="M1091 3184 c0 -11 3 -14 6 -6 3 7 2 16 -1 19 -3 4 -6 -2 -5 -13z"/>
<path d="M3136 3192 c-3 -5 1 -9 9 -9 8 0 12 4 9 9 -3 4 -7 8 -9 8 -2 0 -6 -4
-9 -8z"/>
<path d="M3200 3190 c-12 -7 -10 -9 8 -7 12 0 22 5 22 9 0 11 -12 10 -30 -2z"/>
<path d="M812 3168 c2 -7 -5 -12 -16 -11 -13 1 -15 -2 -7 -10 8 -8 15 -7 27 5
11 11 13 18 5 23 -7 4 -10 1 -9 -7z"/>
<path d="M976 3167 c3 -10 9 -15 12 -12 3 3 0 11 -7 18 -10 9 -11 8 -5 -6z"/>
<path d="M3234 3165 c-4 -8 -10 -12 -15 -9 -5 3 -6 -2 -3 -11 7 -18 7 -18 23
13 6 12 9 22 6 22 -3 0 -8 -7 -11 -15z"/>
<path d="M1005 3146 c-15 -11 -15 -12 4 -12 11 0 17 5 14 10 -4 5 1 7 10 3 9
-3 18 -3 21 1 8 13 -31 11 -49 -2z"/>
<path d="M3253 3145 c0 -7 6 -11 14 -8 7 3 13 6 13 8 0 2 -6 5 -13 8 -8 3 -14
-1 -14 -8z"/>
<path d="M3995 3143 c-11 -3 -34 -18 -51 -34 -17 -16 -32 -27 -35 -25 -3 3 -5
-3 -6 -12 0 -9 -4 -37 -8 -61 -7 -42 14 -180 23 -153 2 7 9 9 15 6 9 -5 9 -4
0 6 -8 9 -9 20 -2 39 21 55 34 60 131 58 83 -2 91 0 109 22 23 28 25 79 3 110
-29 41 -108 61 -179 44z"/>
<path d="M850 3120 c-9 -6 -10 -10 -3 -10 6 0 15 5 18 10 8 12 4 12 -15 0z"/>
<path d="M3277 3119 c7 -7 15 -10 18 -7 3 3 -2 9 -12 12 -14 6 -15 5 -6 -5z"/>
<path d="M986 3109 c4 -8 30 -6 38 2 3 3 -5 5 -19 5 -13 0 -22 -3 -19 -7z"/>
<path d="M1166 3108 c3 -5 10 -6 15 -3 13 9 11 12 -6 12 -8 0 -12 -4 -9 -9z"/>
<path d="M799 3098 c-6 -18 -3 -46 3 -42 5 4 7 12 4 19 -3 8 0 16 7 19 9 3 9
5 0 5 -7 1 -13 0 -14 -1z"/>
<path d="M893 3075 c0 -8 4 -12 9 -9 5 3 6 10 3 15 -9 13 -12 11 -12 -6z"/>
<path d="M1159 3078 c15 -21 31 -23 31 -6 0 6 -3 8 -7 5 -3 -4 -13 -1 -22 6
-14 11 -14 10 -2 -5z"/>
<path d="M935 3050 c3 -5 8 -10 11 -10 2 0 4 5 4 10 0 6 -5 10 -11 10 -5 0 -7
-4 -4 -10z"/>
<path d="M1076 3048 c3 -5 10 -6 15 -3 13 9 11 12 -6 12 -8 0 -12 -4 -9 -9z"/>
<path d="M816 3036 c7 -18 34 -22 34 -4 0 6 -3 8 -7 5 -3 -4 -12 -2 -20 5 -11
8 -12 7 -7 -6z"/>
<path d="M868 3043 c7 -3 16 -2 19 1 4 3 -2 6 -13 5 -11 0 -14 -3 -6 -6z"/>
<path d="M790 3013 c1 -13 30 -48 30 -36 0 7 -5 15 -10 18 -6 4 -8 11 -5 16 4
5 1 9 -4 9 -6 0 -11 -3 -11 -7z"/>
<path d="M757 2994 c6 -15 23 -19 23 -5 0 5 -7 11 -14 14 -10 4 -13 1 -9 -9z"/>
<path d="M855 2999 c-4 -6 -5 -12 -2 -15 2 -3 7 2 10 11 7 17 1 20 -8 4z"/>
<path d="M1094 2999 c-3 -6 -2 -15 3 -20 5 -5 9 -1 9 11 0 23 -2 24 -12 9z"/>
<path d="M1055 2990 c3 -5 8 -10 11 -10 2 0 4 5 4 10 0 6 -5 10 -11 10 -5 0
-7 -4 -4 -10z"/>
<path d="M757 2949 c7 -7 15 -10 18 -7 3 3 -2 9 -12 12 -14 6 -15 5 -6 -5z"/>
<path d="M846 2952 c-3 -5 1 -9 9 -9 8 0 12 4 9 9 -3 4 -7 8 -9 8 -2 0 -6 -4
-9 -8z"/>
<path d="M790 2930 c0 -5 5 -10 10 -10 6 0 10 5 10 10 0 6 -4 10 -10 10 -5 0
-10 -4 -10 -10z"/>
<path d="M757 2909 c6 -23 9 -24 16 -5 3 8 0 17 -7 19 -10 4 -12 -1 -9 -14z"/>
<path d="M856 2917 c3 -10 9 -15 12 -12 3 3 0 11 -7 18 -10 9 -11 8 -5 -6z"/>
<path d="M810 2910 c-8 -5 -10 -10 -5 -10 6 0 17 5 25 10 8 5 11 10 5 10 -5 0
-17 -5 -25 -10z"/>
<path d="M735 2890 c3 -5 8 -10 11 -10 2 0 4 5 4 10 0 6 -5 10 -11 10 -5 0 -7
-4 -4 -10z"/>
<path d="M830 2890 c0 -5 5 -10 10 -10 6 0 10 5 10 10 0 6 -4 10 -10 10 -5 0
-10 -4 -10 -10z"/>
<path d="M990 2891 c0 -6 4 -13 10 -16 6 -3 7 1 4 9 -7 18 -14 21 -14 7z"/>
<path d="M4010 2890 c0 -5 5 -10 11 -10 5 0 7 5 4 10 -3 6 -8 10 -11 10 -2 0
-4 -4 -4 -10z"/>
<path d="M867 2865 c3 -8 9 -12 14 -9 12 7 11 11 -5 17 -10 4 -13 1 -9 -8z"/>
<path d="M740 2866 c0 -2 7 -7 16 -10 8 -3 12 -2 9 4 -6 10 -25 14 -25 6z"/>
<path d="M911 2861 c-19 -12 -22 -38 -5 -38 11 0 11 3 1 16 -10 12 -9 14 6 8
10 -4 16 -3 12 2 -3 5 1 12 7 14 7 3 9 6 3 6 -5 0 -16 -3 -24 -8z"/>
<path d="M1069 2853 c-13 -16 -12 -17 4 -4 9 7 17 15 17 17 0 8 -8 3 -21 -13z"/>
<path d="M1005 2849 c-4 -6 -13 -8 -21 -5 -8 3 -11 0 -7 -10 7 -19 16 -18 31
6 7 11 10 20 8 20 -3 0 -8 -5 -11 -11z"/>
<path d="M1034 2846 c1 -8 5 -18 8 -22 4 -3 5 1 4 10 -1 8 -5 18 -8 22 -4 3
-5 -1 -4 -10z"/>
<path d="M940 2844 c0 -5 7 -18 15 -28 8 -11 15 -16 15 -10 0 5 -7 18 -15 28
-8 11 -15 16 -15 10z"/>
<path d="M755 2831 c-3 -5 -2 -12 3 -15 5 -3 9 1 9 9 0 17 -3 19 -12 6z"/>
<path d="M786 2808 c3 -4 11 -5 19 -1 21 7 19 12 -4 10 -11 0 -18 -5 -15 -9z"/>
<path d="M860 2816 c0 -2 7 -7 16 -10 8 -3 12 -2 9 4 -6 10 -25 14 -25 6z"/>
<path d="M935 2811 c6 -10 2 -12 -16 -6 -13 4 -22 6 -19 4 3 -2 14 -12 26 -22
20 -16 21 -16 19 3 -1 11 -5 23 -10 27 -4 5 -5 2 0 -6z"/>
<path d="M3980 2810 c8 -5 20 -10 25 -10 6 0 3 5 -5 10 -8 5 -19 10 -25 10 -5
0 -3 -5 5 -10z"/>
<path d="M4055 2810 c-3 -5 -1 -10 4 -10 6 0 11 5 11 10 0 6 -2 10 -4 10 -3 0
-8 -4 -11 -10z"/>
<path d="M855 2790 c3 -5 8 -10 11 -10 2 0 4 5 4 10 0 6 -5 10 -11 10 -5 0 -7
-4 -4 -10z"/>
<path d="M1010 2789 c0 -5 5 -7 10 -4 6 3 10 8 10 11 0 2 -4 4 -10 4 -5 0 -10
-5 -10 -11z"/>
<path d="M893 2765 c0 -8 4 -12 9 -9 5 3 6 10 3 15 -9 13 -12 11 -12 -6z"/>
<path d="M4006 2732 c-3 -5 1 -9 9 -9 8 0 12 4 9 9 -3 4 -7 8 -9 8 -2 0 -6 -4
-9 -8z"/>
<path d="M131 2674 c-104 -52 -161 -200 -113 -293 24 -49 64 -75 112 -75 74 1
132 70 145 170 5 43 12 59 36 79 17 14 40 26 52 26 45 3 64 2 103 -5 l39 -7
-64 45 c-124 88 -217 106 -310 60z"/>
<path d="M3915 2630 c3 -5 8 -10 11 -10 2 0 4 5 4 10 0 6 -5 10 -11 10 -5 0
-7 -4 -4 -10z"/>
<path d="M4273 2599 c-2 -23 3 -25 10 -4 4 8 3 16 -1 19 -4 3 -9 -4 -9 -15z"/>
<path d="M4195 2581 c-3 -5 -2 -12 3 -15 5 -3 9 1 9 9 0 17 -3 19 -12 6z"/>
<path d="M4075 2571 c-3 -5 -2 -12 3 -15 5 -3 9 1 9 9 0 17 -3 19 -12 6z"/>
<path d="M4135 2570 c-3 -5 -1 -10 4 -10 6 0 11 5 11 10 0 6 -2 10 -4 10 -3 0
-8 -4 -11 -10z"/>
<path d="M4055 2531 c-3 -5 -2 -12 3 -15 5 -3 9 1 9 9 0 17 -3 19 -12 6z"/>
<path d="M3966 2488 c3 -5 10 -6 15 -3 13 9 11 12 -6 12 -8 0 -12 -4 -9 -9z"/>
<path d="M3970 2450 c0 -5 5 -10 11 -10 5 0 7 5 4 10 -3 6 -8 10 -11 10 -2 0
-4 -4 -4 -10z"/>
<path d="M3995 2101 c-3 -5 -2 -12 3 -15 5 -3 9 1 9 9 0 17 -3 19 -12 6z"/>
<path d="M4311 1622 c-37 -6 -95 -46 -130 -90 -38 -49 -39 -54 -3 -36 66 32
108 22 137 -33 55 -102 173 -113 191 -18 18 96 -91 195 -195 177z"/>
<path d="M292 1490 c-38 -23 -55 -59 -54 -113 0 -45 33 -87 69 -87 27 0 63 32
64 58 2 26 6 76 8 84 3 18 36 38 64 39 l32 1 -35 15 c-56 25 -110 26 -148 3z"/>
</g>
</svg>
